<svg xmlns="http://www.w3.org/2000/svg" viewBox="0 0 300 200" role="img" aria-labelledby="title">
  <title id="title">Flag of Egypt</title>
  <rect width="300" height="200" fill="#000" />
  <rect width="300" height="133.333" y="0" fill="#ce1126" />
  <rect width="300" height="66.666" y="66.666" fill="#fff" />
  <g transform="translate(150 100)" aria-hidden="true">
    <g transform="scale(0.78)">
      <path
        d="M0-52c5.8 0 8.7 3 10 9.1l4.4 21.3c1.1 5.3 3.9 7.5 9.3 7.5h12.8c6.1 0 9.2 3 9.2 9.1 0 5.8-3.1 8.8-9.2 8.8h-9.9c-4.2 0-6.5 2.1-7.1 6.5l-1.5 10.5c-.8 5.1-3.5 7.7-8 7.7h-19.4c-4.5 0-7.2-2.6-8-7.7l-1.5-10.5c-.7-4.4-3-6.5-7.1-6.5h-9.9c-6 0-9.1-3-9.1-8.8 0-6.1 3.1-9.1 9.1-9.1h12.8c5.4 0 8.2-2.2 9.3-7.5l4.4-21.3c1.3-6.1 4.2-9.1 9.9-9.1Z"
        fill="#d6b200"
      />
      <path
        d="M-33.5-1.8h8.3c3.4 0 5.3-1.5 6.4-5.1l3-11.9C-14.2-26-11-28.5 0-28.5S14-26 15.8-18.8l3 11.9c.9 3.6 2.9 5.1 6.3 5.1h8.3v7.9h-6.7c-3.4 0-5.3 1.6-6.4 5.1L17.2 14C15.2 21.4 11.9 24 1.4 24h-2.8C-11.9 24-15.2 21.4-17 14L-20.1 11.3C-21.2 7.7-23 6.1-26.4 6.1h-7.1Z"
        fill="#f1d24d"
      />
      <path
        d="M0 24.2c5.7 0 9.7 1.7 12.1 5.3 2.3 3.3 3.3 7.9 3.3 14v27.6H-15.4V43.5c0-6.1 1-10.7 3.3-14 2.4-3.6 6.5-5.3 12.1-5.3Z"
        fill="#f1d24d"
      />
      <path
        d="M-15.4 71.1h30.8v7.4h-30.8z"
        fill="#d6b200"
      />
      <path
        d="M-8.4 32.6h16.8v14.5H-8.4z"
        fill="#d61721"
      />
      <path
        d="M-8.4 47.1h16.8v14H-8.4z"
        fill="#fff"
      />
      <path
        d="M-8.4 61.1h16.8v10H-8.4z"
        fill="#000"
      />
    </g>
  </g>
</svg>
