<svg xmlns="http://www.w3.org/2000/svg" viewBox="0 0 3 2">
  <rect width="3" height="2" fill="#000" />
  <rect width="3" height="1.333333" y="0" fill="#ce1126" />
  <rect width="3" height="0.666667" y="0.666667" fill="#fff" />
  <g transform="translate(1.5 1)">
    <path
      d="M0-.46c.078 0 .118.04.138.118l.06.234c.022.082.07.123.15.123h.192c.09 0 .13.04.13.126 0 .082-.04.123-.12.123h-.16c-.07 0-.107.037-.118.111l-.023.173c-.01.074-.044.111-.104.111h-.29c-.06 0-.095-.037-.104-.111l-.023-.173C.017.78-.02.743-.09.743h-.16c-.08 0-.12-.04-.12-.123 0-.087.04-.126.13-.126h.192c.08 0 .128-.04.15-.123l.06-.234C-.118-.42-.078-.46 0-.46Z"
      fill="#c09300"
    />
    <path
      d="M-.46.05h.12c.05 0 .077-.022.091-.074l.045-.177C-.184-.29-.143-.325 0-.325s.184.035.204.12l.045.177c.014.052.04.074.091.074h.12v.12h-.097c-.05 0-.077.023-.09.074l-.047.182C.308.56.267.594.13.594h-.26C-.267.594-.308.56-.32.426l-.047-.182c-.014-.052-.04-.074-.09-.074h-.097Z"
      fill="#f1c40f"
    />
  </g>
</svg>
