<svg xmlns="http://www.w3.org/2000/svg" viewBox="0 0 64 64">
  <rect width="64" height="64" rx="8" fill="#006c35" />
  <g fill="#fefefe">
    <path d="M12 24c0-1.1.9-2 2-2h36c1.1 0 2 .9 2 2v3c0 1.1-.9 2-2 2H14c-1.1 0-2-.9-2-2v-3z" />
    <path d="M14.5 28.5c0-1 .8-1.8 1.8-1.8h31.4c1 0 1.8.8 1.8 1.8v1.2c0 1-.8 1.8-1.8 1.8H16.3c-1 0-1.8-.8-1.8-1.8v-1.2z" opacity=".85" />
    <path d="M16 36c0-1.1.9-2 2-2h28c1.1 0 2 .9 2 2v1c0 1.1-.9 2-2 2H18c-1.1 0-2-.9-2-2v-1z" />
    <path d="M22 39h20v2H22z" />
    <path d="M38 43h10c1.1 0 2 .9 2 2v1c0 1.1-.9 2-2 2H16v-1c0-1.1.9-2 2-2h14l2-2z" />
  </g>
</svg>
